# xmcd
#
# Track frame offsets:
#	150
#	16731
#	27563
#	42772
#	56300
#	70539
#	85972
#	100662
#
# Disc length: 1553 seconds
#
# Revision: 0
# Processed by: cddbd v1.5PL3 Copyright (c) Steve Scherf et al.
# Submitted via: dBpowerAMP V4.0
#
DISCID=54060f08
DTITLE=Martin - Brown Eyes Music
DYEAR=1900
DGENRE=Country
TTITLE0=If Tomorrow never comes
TTITLE1=Arms Of Mary
TTITLE2=Mr. Jones
TTITLE3=There's A Honky Tonk Angel
TTITLE4=Take Me Home Country Roads
TTITLE5=Here Is Your Paradise
TTITLE6=Writing On The Wall
TTITLE7=The Dance
EXTD=this album is from a dutch singer.
EXTT0=
EXTT1=
EXTT2=
EXTT3=
EXTT4=
EXTT5=
EXTT6=
EXTT7=
PLAYORDER=
